# xmcd CD database file
#
# Track frame offsets:
#	150
#	14774
#	31014
#	46673
#	60814
#	75817
#	89825
#	103527
#	115313
#	128055
#	141507
#	154930
#	168181
#	182704
#	197670
#	210645
#	225502
#	238730
#	254333
#	267776
#
# Disc length: 3679 seconds
#
# Revision: 0
# Processed by: cddbd v1.5.1PL0 Copyright (c) Steve Scherf et al.
# Submitted via: CDex 1.51
#
DISCID=030e5d14
DTITLE=Mosaro - Die Mantren für den Lichtkörperprozess
DYEAR=2000
DGENRE=New Age
TTITLE0=Gósna Ahúma
TTITLE1=Hássna Konéy
TTITLE2=Hòkna Golia
TTITLE3=Adossanò Gani
TTITLE4=Immon
TTITLE5=Enscholic Konà
TTITLE6=Hôley Máikiel
TTITLE7=Hèpna Ganó Manèya
TTITLE8=Gonissa Gonina
TTITLE9=Banó Haléy
TTITLE10=Homòno Gischna
TTITLE11=Ganossalèy Malùssa
TTITLE12=Alòa Magoaléy Allèy
TTITLE13=Hòssua Goèlla
TTITLE14=Masostaganilà
TTITLE15=Molina
TTITLE16=Spinnèy Ganó
TTITLE17=Tòpa Kòpo
TTITLE18=Sanèyolèya
TTITLE19=HaHaHá
EXTD=YEAR: 2000
EXTT0=
EXTT1=
EXTT2=
EXTT3=
EXTT4=
EXTT5=
EXTT6=
EXTT7=
EXTT8=
EXTT9=
EXTT10=
EXTT11=
EXTT12=
EXTT13=
EXTT14=
EXTT15=
EXTT16=
EXTT17=
EXTT18=
EXTT19=
PLAYORDER=
